<svg width="24" height="20" viewBox="0 0 24 20" fill="none" xmlns="http://www.w3.org/2000/svg">
<path d="M21.3596 5.59635C21.3752 5.80635 21.3752 6.01515 21.3752 6.22395C21.3752 12.614 16.5116 19.9772 7.62321 19.9772C4.88481 19.9772 2.34081 19.184 0.200012 17.8064C0.588812 17.8508 0.963212 17.8664 1.36761 17.8664C3.62721 17.8664 5.70681 17.1032 7.36881 15.8012C5.24361 15.7568 3.46281 14.3648 2.84841 12.4496C3.14721 12.494 3.44721 12.524 3.76161 12.524C4.19481 12.524 4.63041 12.464 5.03481 12.3596C2.81841 11.9108 1.15881 9.96555 1.15881 7.61595V7.55595C1.80321 7.91475 2.55081 8.13915 3.34281 8.16915C2.04081 7.30275 1.18761 5.82075 1.18761 4.14435C1.18761 3.24675 1.42641 2.42355 1.84521 1.70595C4.22481 4.63755 7.80201 6.55395 11.8124 6.76395C11.738 6.40395 11.6924 6.03075 11.6924 5.65635C11.6924 2.99235 13.8476 0.822754 16.526 0.822754C17.918 0.822754 19.1744 1.40595 20.0576 2.34915C21.1496 2.13915 22.196 1.73475 23.1248 1.18155C22.766 2.30355 22.0016 3.24675 20.9996 3.84555C21.9728 3.73995 22.916 3.47115 23.7824 3.09675C23.1248 4.05435 22.3028 4.90755 21.3596 5.59635Z" fill="white"/>
</svg>
