<svg width="75" height="75" viewBox="0 0 75 75" fill="none" xmlns="http://www.w3.org/2000/svg">
<path opacity="0.16" d="M59.375 34.3749C59.375 41.0053 56.7411 47.3641 52.0527 52.0525C47.3643 56.741 41.0054 59.3749 34.375 59.3749C27.7446 59.3749 21.3857 56.741 16.6973 52.0525C12.0089 47.3641 9.375 41.0053 9.375 34.3749C9.375 27.7445 12.0089 21.3856 16.6973 16.6972C21.3857 12.0088 27.7446 9.37488 34.375 9.37488C41.0054 9.37488 47.3643 12.0088 52.0527 16.6972C56.7411 21.3856 59.375 27.7445 59.375 34.3749Z" fill="#219653"/>
<path d="M65.6249 65.625L52.053 52.0531M52.053 52.0531C54.3746 49.7316 56.2161 46.9755 57.4725 43.9423C58.7289 40.9091 59.3756 37.6581 59.3756 34.375C59.3756 31.0918 58.7289 27.8409 57.4725 24.8076C56.2161 21.7744 54.3746 19.0184 52.053 16.6968C49.7315 14.3753 46.9755 12.5338 43.9422 11.2774C40.909 10.021 37.658 9.37433 34.3749 9.37433C31.0918 9.37433 27.8408 10.021 24.8076 11.2774C21.7744 12.5338 19.0183 14.3753 16.6968 16.6968C12.0083 21.3854 9.37427 27.7444 9.37427 34.375C9.37427 41.0056 12.0083 47.3646 16.6968 52.0531C21.3853 56.7416 27.7443 59.3756 34.3749 59.3756C41.0055 59.3756 47.3645 56.7416 52.053 52.0531Z" stroke="#5B5B58" stroke-width="6.25" stroke-linecap="round" stroke-linejoin="round"/>
</svg>
