<svg width="22" height="23" viewBox="0 0 22 23" fill="none" xmlns="http://www.w3.org/2000/svg">
<path fill-rule="evenodd" clip-rule="evenodd" d="M16.6 0.600098H5.79999C2.83026 0.600098 0.399994 3.02929 0.399994 6.0001V16.8001C0.399994 19.7698 2.83026 22.2001 5.79999 22.2001H16.6C19.5697 22.2001 22 19.7698 22 16.8001V6.0001C22 3.02929 19.5697 0.600098 16.6 0.600098ZM11.2 15.8999C8.7144 15.8999 6.69993 13.8846 6.69993 11.4001C6.69993 8.91448 8.7144 6.90001 11.2 6.90001C13.6846 6.90001 15.7001 8.91448 15.7001 11.4001C15.7001 13.8846 13.6846 15.8999 11.2 15.8999ZM15.7001 5.55001C15.7001 6.29548 16.3038 6.90001 17.0501 6.90001C17.7964 6.90001 18.4001 6.29548 18.4001 5.55001C18.4001 4.80454 17.7964 4.20001 17.0501 4.20001C16.3038 4.20001 15.7001 4.80454 15.7001 5.55001Z" fill="white"/>
</svg>
