<svg width="29" height="30" viewBox="0 0 29 30" fill="none" xmlns="http://www.w3.org/2000/svg">
<g id="vuesax/linear/moneys">
<g id="vuesax/linear/moneys_2">
<g id="Group">
<path id="Vector" d="M23.3599 10.0038V16.1839C23.3599 19.8799 21.248 21.4638 18.08 21.4638H7.53195C6.99195 21.4638 6.47595 21.4159 5.99595 21.3079C5.69595 21.2599 5.40796 21.1759 5.14396 21.0799C3.34396 20.4079 2.25195 18.8479 2.25195 16.1839V10.0038C2.25195 6.30783 4.36395 4.72388 7.53195 4.72388H18.08C20.768 4.72388 22.7 5.86387 23.216 8.46787C23.3 8.94787 23.3599 9.43983 23.3599 10.0038Z" stroke="#292D32" stroke-width="1.8" stroke-miterlimit="10" stroke-linecap="round" stroke-linejoin="round"/>
<path id="Vector_2" d="M26.9613 13.604V19.784C26.9613 23.48 24.8493 25.064 21.6813 25.064H11.1333C10.2453 25.064 9.44132 24.944 8.74532 24.68C7.31732 24.152 6.34531 23.06 5.99731 21.308C6.47731 21.416 6.99331 21.464 7.53331 21.464H18.0813C21.2493 21.464 23.3613 19.88 23.3613 16.184V10.004C23.3613 9.43998 23.3133 8.93602 23.2173 8.46802C25.4973 8.94802 26.9613 10.556 26.9613 13.604Z" stroke="#292D32" stroke-width="1.8" stroke-miterlimit="10" stroke-linecap="round" stroke-linejoin="round"/>
<path id="Vector_3" d="M12.7981 16.2677C14.5478 16.2677 15.9662 14.8493 15.9662 13.0997C15.9662 11.35 14.5478 9.93164 12.7981 9.93164C11.0485 9.93164 9.63013 11.35 9.63013 13.0997C9.63013 14.8493 11.0485 16.2677 12.7981 16.2677Z" stroke="#292D32" stroke-width="1.8" stroke-miterlimit="10" stroke-linecap="round" stroke-linejoin="round"/>
<path id="Vector_4" d="M5.93604 10.4598V15.7399" stroke="#292D32" stroke-width="1.8" stroke-miterlimit="10" stroke-linecap="round" stroke-linejoin="round"/>
<path id="Vector_5" d="M19.666 10.4602V15.7402" stroke="#292D32" stroke-width="1.8" stroke-miterlimit="10" stroke-linecap="round" stroke-linejoin="round"/>
</g>
</g>
</g>
</svg>
