<svg width="14" height="15" viewBox="0 0 14 15" fill="none" xmlns="http://www.w3.org/2000/svg">
<path d="M6.95145 6.59389C6.89428 6.58817 6.82568 6.58817 6.7628 6.59389C5.40223 6.54816 4.32178 5.4334 4.32178 4.0614C4.32178 2.66081 5.45368 1.52319 6.85998 1.52319C8.26057 1.52319 9.39819 2.66081 9.39819 4.0614C9.39247 5.4334 8.31202 6.54816 6.95145 6.59389Z" stroke="white" stroke-width="0.857502" stroke-linecap="round" stroke-linejoin="round"/>
<path d="M4.09324 8.70332C2.7098 9.62942 2.7098 11.1386 4.09324 12.059C5.66533 13.1109 8.24355 13.1109 9.81564 12.059C11.1991 11.1329 11.1991 9.6237 9.81564 8.70332C8.24927 7.65716 5.67105 7.65716 4.09324 8.70332Z" stroke="white" stroke-width="0.857502" stroke-linecap="round" stroke-linejoin="round"/>
</svg>
